<?xml version="1.0" encoding="UTF-8"?>
<svg xmlns="http://www.w3.org/2000/svg" xmlns:xlink="http://www.w3.org/1999/xlink" width="50px" height="50px" viewBox="0 0 50 50" version="1.1">
<g id="surface1">
<path style=" stroke:none;fill-rule:nonzero;fill-opacity:1;" d="M 24.453125 6.433594 C 24.003906 6.707031 21.671875 8.992188 20.851562 9.960938 C 20.46875 10.417969 19.902344 11.132812 19.589844 11.542969 C 19.238281 12 18.976562 12.273438 18.90625 12.234375 C 18.847656 12.195312 18.339844 11.863281 17.773438 11.492188 C 16.542969 10.691406 13.828125 9.335938 12.375 8.796875 C 10.480469 8.09375 10.382812 8.132812 9.394531 10.027344 C 8.195312 12.363281 7.304688 14.902344 6.828125 17.382812 C 6.660156 18.210938 6.515625 18.945312 6.496094 19.003906 C 6.476562 19.070312 6.125 19.070312 5.3125 18.984375 C 4.667969 18.925781 3.417969 18.835938 2.53125 18.796875 C 0.703125 18.71875 0.429688 18.777344 0.136719 19.355469 C -0.15625 19.910156 0.0976562 23.445312 0.585938 25.886719 C 1.886719 32.285156 5.636719 37.539062 11.105469 40.613281 C 15.324219 42.988281 21.515625 44.109375 27.785156 43.652344 C 34.628906 43.132812 39.863281 40.917969 43.710938 36.902344 C 47.667969 32.761719 49.6875 27.683594 49.960938 21.171875 C 50.019531 19.882812 50.011719 19.628906 49.863281 19.355469 C 49.570312 18.777344 49.296875 18.71875 47.472656 18.796875 C 46.582031 18.835938 45.332031 18.925781 44.6875 18.984375 C 43.878906 19.070312 43.527344 19.070312 43.507812 19.003906 C 43.488281 18.945312 43.339844 18.210938 43.175781 17.382812 C 42.695312 14.902344 41.808594 12.363281 40.605469 10.027344 C 39.621094 8.132812 39.523438 8.09375 37.628906 8.796875 C 36.171875 9.335938 33.457031 10.691406 32.226562 11.492188 C 31.660156 11.863281 31.152344 12.195312 31.09375 12.234375 C 31.027344 12.273438 30.761719 12 30.410156 11.542969 C 29.425781 10.234375 28.488281 9.167969 27.148438 7.878906 C 25.773438 6.542969 25.390625 6.25 25 6.25 C 24.863281 6.25 24.621094 6.335938 24.453125 6.433594 Z M 26.378906 10.027344 C 27.882812 11.5625 28.488281 12.304688 29.511719 13.816406 C 31.339844 16.523438 32.472656 19.304688 33.058594 22.507812 C 33.300781 23.835938 33.359375 26.726562 33.164062 28.171875 C 32.578125 32.558594 30.683594 36.269531 27.433594 39.414062 C 26.582031 40.234375 25.148438 41.40625 25 41.40625 C 24.855469 41.40625 23.417969 40.234375 22.570312 39.414062 C 19.316406 36.269531 17.421875 32.558594 16.835938 28.171875 C 16.640625 26.726562 16.699219 23.835938 16.945312 22.507812 C 17.648438 18.679688 19.25 15.203125 21.757812 12.058594 C 22.316406 11.355469 24.882812 8.691406 25 8.691406 C 25.039062 8.691406 25.65625 9.296875 26.378906 10.027344 Z M 13.964844 11.746094 C 15.089844 12.285156 17.277344 13.554688 17.863281 14.023438 C 17.882812 14.042969 17.675781 14.472656 17.402344 14.980469 C 16.445312 16.757812 15.703125 18.699219 15.273438 20.507812 C 15.148438 21.074219 15.019531 21.589844 14.992188 21.660156 C 14.960938 21.746094 14.765625 21.6875 14.289062 21.445312 C 12.832031 20.722656 10.46875 19.871094 9.210938 19.628906 C 8.476562 19.480469 8.488281 19.550781 8.839844 17.820312 C 9.269531 15.671875 10.050781 13.378906 10.988281 11.523438 L 11.425781 10.652344 L 12.324219 11.023438 C 12.824219 11.238281 13.566406 11.5625 13.964844 11.746094 Z M 39.015625 11.523438 C 39.953125 13.378906 40.734375 15.664062 41.164062 17.820312 C 41.515625 19.550781 41.523438 19.480469 40.800781 19.628906 C 39.53125 19.871094 37.167969 20.722656 35.714844 21.445312 C 35.234375 21.6875 35.039062 21.746094 35.011719 21.660156 C 34.980469 21.589844 34.855469 21.074219 34.726562 20.507812 C 34.296875 18.699219 33.554688 16.757812 32.597656 14.980469 C 32.324219 14.472656 32.121094 14.042969 32.140625 14.023438 C 33.195312 13.171875 36.75 11.308594 38.546875 10.652344 C 38.566406 10.644531 38.769531 11.035156 39.015625 11.523438 Z M 4.699219 20.996094 C 7.023438 21.21875 8.789062 21.582031 10.546875 22.167969 C 11.953125 22.636719 12.570312 22.898438 13.730469 23.542969 L 14.621094 24.03125 L 14.621094 25.761719 C 14.640625 30.058594 15.734375 33.730469 18.046875 37.195312 C 18.925781 38.535156 19.53125 39.277344 20.792969 40.554688 L 21.730469 41.523438 L 21.339844 41.464844 C 21.125 41.433594 20.578125 41.355469 20.117188 41.296875 C 16.269531 40.808594 12.734375 39.433594 9.902344 37.34375 C 8.253906 36.121094 6.132812 33.730469 5 31.804688 C 3.390625 29.070312 2.402344 25.644531 2.1875 22.058594 L 2.121094 20.898438 L 2.910156 20.898438 C 3.339844 20.898438 4.140625 20.945312 4.699219 20.996094 Z M 47.8125 22.058594 C 47.597656 25.644531 46.613281 29.070312 45 31.804688 C 43.867188 33.730469 41.75 36.121094 40.097656 37.34375 C 37.265625 39.433594 33.730469 40.808594 29.882812 41.296875 C 29.425781 41.355469 28.878906 41.433594 28.664062 41.464844 L 28.273438 41.523438 L 29.210938 40.554688 C 30.46875 39.277344 31.074219 38.535156 31.953125 37.195312 C 34.269531 33.730469 35.363281 30.046875 35.382812 25.761719 L 35.382812 24.03125 L 36.269531 23.542969 C 37.433594 22.898438 38.046875 22.636719 39.453125 22.167969 C 41.679688 21.425781 44.5625 20.9375 46.914062 20.90625 L 47.882812 20.898438 Z M 47.8125 22.058594 "/>
</g>
</svg>
